<svg width="82" height="91" viewBox="0 0 82 91" fill="none" xmlns="http://www.w3.org/2000/svg">
<rect y="6" width="82" height="77.79" rx="15" fill="url(#paint0_linear_1_11)"/>
<path d="M41.4658 16.7754C44.1025 16.873 46.7637 17.3613 49.4492 18.2402C52.1836 19.0703 54.6982 20.4375 56.9932 22.3418C59.2881 24.1973 61.2412 26.6143 62.8525 29.5928C64.4639 32.5225 65.4648 36.1113 65.8555 40.3594C66.1973 43.8262 65.7578 47.2686 64.5371 50.6865C63.3652 54.0557 61.7295 57.1562 59.6299 59.9883C57.5303 62.8203 55.1133 65.2373 52.3789 67.2393C49.6445 69.1924 46.9102 70.4863 44.1758 71.1211C42.5156 71.5117 40.6846 71.5605 38.6826 71.2676C36.7295 70.9258 34.7275 70.3154 32.6768 69.4365C30.6748 68.5088 28.6973 67.3369 26.7441 65.9209C24.8398 64.5049 23.1064 62.8936 21.5439 61.0869C19.9814 59.2314 18.6631 57.2295 17.5889 55.0811C16.5635 52.9326 15.9287 50.6865 15.6846 48.3428C15.4404 46.3896 15.416 44.2412 15.6113 41.8975C15.8555 39.5049 16.3193 37.1367 17.0029 34.793C17.7354 32.4004 18.7363 30.1055 20.0059 27.9082C21.3242 25.6621 22.9844 23.709 24.9863 22.0488C26.9883 20.3398 29.332 19.0215 32.0176 18.0938C34.752 17.1172 37.9014 16.6777 41.4658 16.7754ZM28.3555 46.4385C27.6719 51.6631 28.1602 55.8623 29.8203 59.0361C31.5293 62.21 34.0928 64.1387 37.5107 64.8223C39.1709 65.1641 40.7578 64.8223 42.2715 63.7969C43.834 62.7227 45.25 61.1846 46.5195 59.1826C47.7891 57.1807 48.8877 54.8369 49.8154 52.1514C50.7432 49.4658 51.4268 46.6582 51.8662 43.7285C52.3057 40.7988 52.3301 38.1621 51.9395 35.8184C51.5977 33.4258 50.9873 31.3994 50.1084 29.7393C49.2295 28.0303 48.1553 26.7119 46.8857 25.7842C45.665 24.8564 44.3955 24.3438 43.0771 24.2461C40.7822 24.0996 38.7803 24.71 37.0713 26.0771C35.3623 27.3955 33.9219 29.1289 32.75 31.2773C31.5781 33.4258 30.626 35.8428 29.8936 38.5283C29.21 41.2139 28.6973 43.8506 28.3555 46.4385Z" fill="white"/>
<defs>
<linearGradient id="paint0_linear_1_11" x1="25" y1="75.5" x2="61.5" y2="33.5" gradientUnits="userSpaceOnUse">
<stop offset="0.143152" stop-color="#3E196E"/>
<stop offset="1" stop-color="#D46C76"/>
</linearGradient>
</defs>
</svg>
