<svg width="82" height="82" viewBox="0 0 82 82" fill="none" xmlns="http://www.w3.org/2000/svg">
<rect y="4" width="82" height="77.79" rx="15" fill="white"/>
<path d="M40.25 74.675C36.15 74.675 32.875 73.875 30.425 72.275C27.975 70.675 26.225 68.4 25.175 65.45C24.125 62.45 23.6 58.95 23.6 54.95V31.925C23.6 27.925 24.125 24.5 25.175 21.65C26.275 18.75 28.025 16.55 30.425 15.05C32.875 13.5 36.15 12.725 40.25 12.725C44.35 12.725 47.6 13.5 50 15.05C52.4 16.6 54.125 18.8 55.175 21.65C56.275 24.5 56.825 27.925 56.825 31.925V55.025C56.825 58.975 56.275 62.425 55.175 65.375C54.125 68.325 52.4 70.625 50 72.275C47.6 73.875 44.35 74.675 40.25 74.675ZM40.25 68C42.5 68 44.2 67.55 45.35 66.65C46.5 65.7 47.275 64.4 47.675 62.75C48.075 61.05 48.275 59.075 48.275 56.825V30.2C48.275 27.95 48.075 26.025 47.675 24.425C47.275 22.775 46.5 21.525 45.35 20.675C44.2 19.775 42.5 19.325 40.25 19.325C38 19.325 36.275 19.775 35.075 20.675C33.925 21.525 33.15 22.775 32.75 24.425C32.35 26.025 32.15 27.95 32.15 30.2V56.825C32.15 59.075 32.35 61.05 32.75 62.75C33.15 64.4 33.925 65.7 35.075 66.65C36.275 67.55 38 68 40.25 68Z" fill="#022E1F"/>
</svg>
