<svg width="82" height="86" viewBox="0 0 82 86" fill="none" xmlns="http://www.w3.org/2000/svg">
<rect y="4" width="82" height="77.79" rx="15" fill="url(#paint0_linear_1_11)"/>
<path d="M40.9 72.63C37.0733 72.63 34.0167 71.8833 31.73 70.39C29.4433 68.8967 27.81 66.7733 26.83 64.02C25.85 61.22 25.36 57.9533 25.36 54.22V32.73C25.36 28.9967 25.85 25.8 26.83 23.14C27.8567 20.4333 29.49 18.38 31.73 16.98C34.0167 15.5333 37.0733 14.81 40.9 14.81C44.7267 14.81 47.76 15.5333 50 16.98C52.24 18.4267 53.85 20.48 54.83 23.14C55.8567 25.8 56.37 28.9967 56.37 32.73V54.29C56.37 57.9767 55.8567 61.1967 54.83 63.95C53.85 66.7033 52.24 68.85 50 70.39C47.76 71.8833 44.7267 72.63 40.9 72.63ZM40.9 66.4C43 66.4 44.5867 65.98 45.66 65.14C46.7333 64.2533 47.4567 63.04 47.83 61.5C48.2033 59.9133 48.39 58.07 48.39 55.97V31.12C48.39 29.02 48.2033 27.2233 47.83 25.73C47.4567 24.19 46.7333 23.0233 45.66 22.23C44.5867 21.39 43 20.97 40.9 20.97C38.8 20.97 37.19 21.39 36.07 22.23C34.9967 23.0233 34.2733 24.19 33.9 25.73C33.5267 27.2233 33.34 29.02 33.34 31.12V55.97C33.34 58.07 33.5267 59.9133 33.9 61.5C34.2733 63.04 34.9967 64.2533 36.07 65.14C37.19 65.98 38.8 66.4 40.9 66.4Z" fill="white"/>
<defs>
<linearGradient id="paint0_linear_1_11" x1="25" y1="73.5" x2="61.5" y2="31.5" gradientUnits="userSpaceOnUse">
<stop offset="0.143152" stop-color="#022E1F"/>
<stop offset="1" stop-color="#073734"/>
</linearGradient>
</defs>
</svg>
