<svg width="82" height="78" viewBox="0 0 82 78" fill="none" xmlns="http://www.w3.org/2000/svg">
<path d="M67.9278 77.7861H14.0722C6.29623 77.7861 0 71.804 0 64.4371V13.349C0 5.97268 6.30616 0 14.0722 0H67.9278C75.7038 0 82 5.9821 82 13.349V64.4371C82 71.804 75.7038 77.7861 67.9278 77.7861Z" fill="url(#paint0_linear_1575_16366)"/>
<path fill-rule="evenodd" clip-rule="evenodd" d="M63.6674 61.4039H48.5425C48.5425 61.4039 48.5425 61.4039 48.5425 61.4039H41.0249C38.3733 61.4039 35.831 60.9705 33.4674 60.1792C27.7472 58.2574 23.0797 54.2348 20.5075 49.0723C20.1798 48.4223 19.8918 47.744 19.6336 47.0563H39.3463C39.3405 47.0532 38.9469 46.8482 38.6512 46.736C38.2639 46.5664 37.8766 46.4157 37.4794 46.265C36.0791 45.6809 34.7384 45.0026 33.4573 44.2395C30.8256 42.6757 28.4521 40.7633 26.4063 38.5777C26.3418 38.5071 26.2748 38.4341 26.2078 38.3611C26.1407 38.2881 26.0737 38.2151 26.0091 38.1444C24.5095 36.4769 23.1986 34.6588 22.1062 32.7087C22.0268 32.5674 21.9473 32.4261 21.8778 32.2848C21.4905 31.5688 21.133 30.8434 20.8053 30.1086C19.266 26.6136 18.392 22.7794 18.3325 18.7568V18.3611H33.4573L33.4574 18.3624V18.3611H41.0149C43.6665 18.3611 46.2088 18.7944 48.5823 19.5858C54.2926 21.4982 58.9502 25.5208 61.5224 30.6644C61.86 31.3239 62.158 32.0116 62.4162 32.7087H42.6535C39.7636 31.2862 37.3603 29.1006 35.7316 26.4346L35.7234 26.4212L35.7315 26.4346C37.3602 29.1006 39.7635 31.2862 42.6534 32.7087C42.6534 32.7087 43.0606 32.9254 43.3585 33.0384C43.726 33.1986 44.1033 33.3493 44.4906 33.4906C45.9108 34.0841 47.2812 34.7718 48.5822 35.5537C51.194 37.1081 53.5576 39.0111 55.5935 41.1967C55.7424 41.3568 55.8914 41.517 56.0304 41.6771C57.5101 43.3257 58.8111 45.1345 59.8936 47.0657L59.8936 47.0658L59.8937 47.0659C59.9731 47.2072 60.0525 47.3484 60.122 47.4897C60.5192 48.215 60.8767 48.9593 61.2045 49.7129C62.7934 53.3022 63.6674 57.2588 63.6674 61.4039Z" fill="white"/>
<defs>
<linearGradient id="paint0_linear_1575_16366" x1="-34.577" y1="92.6629" x2="83.0221" y2="-0.314429" gradientUnits="userSpaceOnUse">
<stop stop-color="#458AC9"/>
<stop offset="0.3717" stop-color="#5C63AD"/>
<stop offset="0.6497" stop-color="#9154A1"/>
<stop offset="1" stop-color="#F1666B"/>
</linearGradient>
</defs>
</svg>
